# Blender v2.79 (sub 0) OBJ File: ''
# www.blender.org
o ground_pPlane1
v -90.615036 -0.000015 90.615036
v -54.369026 10.503227 90.615036
v -54.369026 -0.000009 54.369026
v -90.615036 -0.000009 54.369026
v -90.615036 0.000009 -54.369019
v -54.369026 0.000009 -54.369019
v -54.369026 0.000015 -90.615036
v -90.615036 0.000015 -90.615036
v -90.615036 0.000003 -18.123005
v -54.369026 0.000003 -18.123005
v -90.615036 -0.000003 18.123013
v -54.369026 -0.000003 18.123013
v 54.369019 -2.969306 90.615036
v 90.615036 -0.000015 90.615036
v 90.615036 5.432999 54.369026
v 54.369019 1.447161 54.369026
v 54.369019 -0.000003 18.123013
v 90.615036 3.107861 18.123013
v 56.328503 6.605864 -18.123003
v 90.615036 0.000003 -18.123005
v 54.369019 0.000009 -54.369019
v 90.615036 0.000009 -54.369019
v 54.369019 4.765193 -90.615036
v 90.615036 0.000015 -90.615036
v 18.123005 1.190270 90.615036
v 18.123005 -0.000009 54.369026
v 18.123005 2.251099 18.123013
v 18.123005 1.088638 -18.123005
v 18.123005 0.000009 -54.369019
v 18.123005 0.000015 -90.615036
v -18.123013 5.400645 90.615036
v -18.123013 1.077409 54.369026
v -18.123013 4.414222 18.123013
v -18.123013 2.140299 -18.123005
v -18.123013 3.300656 -54.369019
v -18.123013 0.000015 -90.615036
vt 0.314021 0.523446
vt 0.450272 0.616801
vt 0.314021 0.616801
vt 0.450272 0.896867
vt 0.314021 0.990222
vt 0.314021 0.896867
vt 0.450272 0.803512
vt 0.314021 0.803512
vt 0.450272 0.710157
vt 0.314021 0.710157
vt 0.995275 0.523446
vt 0.859024 0.616801
vt 0.859024 0.523446
vt 0.995275 0.710157
vt 0.859024 0.710157
vt 0.859024 0.803512
vt 0.995275 0.803512
vt 0.995275 0.896867
vt 0.859024 0.896867
vt 0.995275 0.990222
vt 0.859024 0.990222
vt 0.722773 0.523446
vt 0.722773 0.616801
vt 0.722773 0.710157
vt 0.722773 0.803512
vt 0.722773 0.896867
vt 0.722773 0.990222
vt 0.586523 0.616801
vt 0.586523 0.523446
vt 0.586523 0.710157
vt 0.586523 0.803512
vt 0.586523 0.896867
vt 0.586523 0.990222
vt 0.450272 0.523446
vt 0.450272 0.990222
vt 0.995275 0.616801
vn -0.1399 0.9802 -0.1399
vn -0.0297 0.9959 -0.0860
vn -0.0008 1.0000 -0.0008
vn -0.0301 0.9995 -0.0074
vn 0.0000 1.0000 0.0000
vn -0.0295 0.9996 0.0000
vn -0.0414 0.9991 0.0037
vn -0.0946 0.9865 0.1340
vn -0.0490 0.9986 0.0220
vn 0.0155 0.9925 0.1213
vn -0.0257 0.9997 -0.0014
vn -0.0511 0.9972 0.0541
vn -0.0313 0.9995 -0.0105
vn 0.1890 0.9811 -0.0418
vn 0.0461 0.9979 -0.0460
vn -0.0203 0.9991 -0.0379
vn 0.0652 0.9957 0.0652
vn -0.0000 0.9915 0.1303
vn 0.0550 0.9984 -0.0158
vn 0.0076 1.0000 0.0019
vn 0.0530 0.9985 0.0151
vn -0.0143 0.9996 -0.0227
vn 0.0258 0.9995 -0.0192
vn -0.0327 0.9989 0.0327
vn 0.0032 0.9998 -0.0186
vn 0.0844 0.9835 -0.1600
vn -0.0306 0.9994 0.0145
vn -0.0152 0.9998 -0.0154
vn -0.0000 0.9996 -0.0293
vn -0.0000 0.9990 -0.0454
vn -0.0658 0.9584 -0.2777
vn -0.1092 0.9931 0.0418
s 1
f 1/1/1 3/2/2 4/3/3
f 6/4/4 8/5/5 5/6/5
f 10/7/6 5/6/5 9/8/5
f 12/9/7 9/8/5 11/10/5
f 3/2/2 11/10/5 4/3/3
f 14/11/8 16/12/9 13/13/10
f 16/12/9 18/14/11 17/15/12
f 19/16/13 18/14/11 20/17/14
f 19/16/13 22/18/15 21/19/16
f 21/19/16 24/20/17 23/21/18
f 25/22/19 16/12/9 26/23/20
f 26/23/20 17/15/12 27/24/21
f 28/25/22 17/15/12 19/16/13
f 28/25/22 21/19/16 29/26/23
f 30/27/24 21/19/16 23/21/18
f 25/22/19 32/28/25 31/29/26
f 32/28/25 27/24/21 33/30/27
f 34/31/28 27/24/21 28/25/22
f 34/31/28 29/26/23 35/32/29
f 36/33/30 29/26/23 30/27/24
f 31/29/26 3/2/2 2/34/31
f 12/9/7 32/28/25 33/30/27
f 12/9/7 34/31/28 10/7/6
f 6/4/4 34/31/28 35/32/29
f 6/4/4 36/33/30 7/35/5
f 1/1/1 2/34/31 3/2/2
f 6/4/4 7/35/5 8/5/5
f 10/7/6 6/4/4 5/6/5
f 12/9/7 10/7/6 9/8/5
f 3/2/2 12/9/7 11/10/5
f 14/11/8 15/36/32 16/12/9
f 16/12/9 15/36/32 18/14/11
f 19/16/13 17/15/12 18/14/11
f 19/16/13 20/17/14 22/18/15
f 21/19/16 22/18/15 24/20/17
f 25/22/19 13/13/10 16/12/9
f 26/23/20 16/12/9 17/15/12
f 28/25/22 27/24/21 17/15/12
f 28/25/22 19/16/13 21/19/16
f 30/27/24 29/26/23 21/19/16
f 25/22/19 26/23/20 32/28/25
f 32/28/25 26/23/20 27/24/21
f 34/31/28 33/30/27 27/24/21
f 34/31/28 28/25/22 29/26/23
f 36/33/30 35/32/29 29/26/23
f 31/29/26 32/28/25 3/2/2
f 12/9/7 3/2/2 32/28/25
f 12/9/7 33/30/27 34/31/28
f 6/4/4 10/7/6 34/31/28
f 6/4/4 35/32/29 36/33/30
